<?xml version="1.0" encoding="UTF-8" standalone="no"?>
<svg
   viewBox="-2084 -404 600.00006 235.35574"
   version="1.1"
   id="svg21"
   width="600.00006"
   height="235.35574"
   xmlns:xlink="http://www.w3.org/1999/xlink"
   xmlns="http://www.w3.org/2000/svg"
   xmlns:svg="http://www.w3.org/2000/svg"
   xmlns:rdf="http://www.w3.org/1999/02/22-rdf-syntax-ns#"
   xmlns:cc="http://creativecommons.org/ns#"
   xmlns:dc="http://purl.org/dc/elements/1.1/">
  <defs
     id="defs25">
    <linearGradient
       id="linearGradient2679">
      <stop
         style="stop-color:#3d9ec7;stop-opacity:1"
         offset="0"
         id="stop2675" />
      <stop
         style="stop-color:#000000;stop-opacity:0;"
         offset="1"
         id="stop2677" />
    </linearGradient>
    <linearGradient
       id="linearGradient1204">
      <stop
         style="stop-color:#cc0000;stop-opacity:1;"
         offset="0"
         id="stop1202" />
    </linearGradient>
    <linearGradient
       xlink:href="#linearGradient2679"
       id="linearGradient2681"
       x1="-1747.924"
       y1="-279.55753"
       x2="-2072.6394"
       y2="-303.9447"
       gradientUnits="userSpaceOnUse" />
  </defs>
  <title
     id="title2">A pile of red cubes</title>
  <metadata
     id="metadata842">
    <rdf:RDF>
      <cc:Work
         rdf:about="">
        <dc:title>A pile of red cubes</dc:title>
      </cc:Work>
    </rdf:RDF>
  </metadata>
  <g
     transform="matrix(0.02269338,0,0,-0.02260835,-1774.4752,-219.96192)"
     fill="#000000"
     stroke="none"
     id="g850"
     style="fill:#008fcc;fill-opacity:1">
    <path
       d="m 11113,7657 -43,-21 v -668 -667 l -32,-5 c -328,-53 -439,-73 -578,-102 -367,-78 -700,-170 -1100,-304 -146,-48 -273,-91 -282,-95 -17,-7 -18,24 -20,526 -3,513 -4,534 -22,537 -10,2 -36,-4 -57,-14 l -39,-17 v -542 -543 l -62,-22 c -114,-42 -484,-198 -685,-288 -407,-184 -834,-399 -1268,-640 -142,-79 -182,-97 -188,-86 -4,8 -13,85 -19,172 -6,86 -15,160 -21,163 -5,4 -24,1 -41,-6 l -31,-13 -3,-200 -2,-200 -423,-240 c -540,-306 -841,-472 -855,-472 -7,0 -12,8 -12,18 0,9 -14,177 -31,372 -34,382 -36,388 -89,375 -76,-18 -996,-288 -1003,-294 -6,-6 54,-727 78,-938 l 6,-51 -203,-80 c -226,-89 -490,-180 -706,-242 l -143,-41 -44,31 c -111,76 -268,129 -391,130 h -40 l -27,211 -27,211 107,112 c 225,235 339,446 389,722 25,136 25,450 1,584 -28,152 -54,238 -107,345 -68,141 -165,245 -228,245 -85,0 -268,-253 -336,-465 -55,-172 -61,-227 -60,-535 1,-243 5,-311 26,-459 l 24,-173 -110,-101 c -61,-55 -179,-163 -262,-238 -349,-320 -480,-515 -524,-786 l -12,-73 h -198 -198 l 5,43 c 5,39 2,46 -27,70 -45,38 -76,44 -108,20 -23,-17 -27,-28 -27,-72 0,-45 -2,-51 -21,-51 -19,0 -22,7 -27,69 -10,124 -70,212 -183,267 -81,40 -193,45 -277,14 -111,-42 -187,-120 -209,-218 l -13,-54 -55,7 c -30,4 -100,16 -155,26 -125,24 -125,24 -125,-4 0,-21 9,-24 153,-50 83,-15 160,-27 169,-27 17,0 34,-17 26,-26 -4,-4 -287,49 -330,62 -14,4 -18,-1 -18,-19 0,-28 -14,-24 249,-78 125,-25 180,-43 168,-55 -2,-2 -93,17 -203,41 -109,25 -202,45 -206,45 -5,0 -8,-10 -8,-22 0,-21 11,-26 138,-56 158,-37 424,-92 564,-117 69,-12 98,-22 98,-31 0,-8 -9,-14 -20,-14 -33,0 -389,77 -593,129 L 0,2736 v -22 c 0,-19 9,-26 53,-39 85,-26 483,-122 605,-147 87,-18 112,-26 110,-38 -2,-10 -12,-14 -28,-12 -75,10 -648,159 -722,187 -14,6 -18,2 -18,-18 0,-22 8,-27 83,-51 113,-35 464,-130 566,-153 44,-10 81,-22 81,-26 0,-14 -54,-87 -139,-187 -82,-97 -96,-132 -53,-138 16,-2 60,35 174,148 l 153,151 230,-46 c 127,-25 307,-56 400,-70 94,-14 184,-28 200,-31 24,-4 39,-18 75,-76 100,-158 272,-303 437,-366 129,-50 234,-65 408,-59 83,3 161,9 175,12 l 25,6 35,-275 c 31,-252 33,-281 22,-356 -22,-151 -97,-262 -216,-320 -136,-66 -310,-58 -379,18 -17,19 -17,19 29,26 231,31 332,293 179,464 -98,109 -232,136 -361,72 -101,-49 -151,-130 -161,-255 -11,-134 34,-252 132,-350 208,-208 555,-207 764,2 78,79 116,150 137,260 21,112 17,232 -19,503 l -33,245 77,36 c 167,79 313,209 378,337 l 19,38 220,22 c 635,65 1164,173 1987,408 182,52 339,97 350,101 19,5 19,5 4,-13 -62,-71 -94,-211 -70,-300 23,-84 122,-164 223,-179 130,-20 308,48 430,163 127,120 147,173 149,393 l 1,148 32,10 c 74,24 348,92 352,88 3,-2 0,-16 -6,-31 -17,-46 -13,-86 9,-86 24,0 48,30 80,97 l 23,51 147,32 c 726,158 1474,199 2186,119 1072,-120 2133,-513 3115,-1153 69,-45 131,-85 138,-90 9,-6 12,26 12,146 v 154 l -177,106 c -550,330 -1052,561 -1608,741 -656,213 -1306,317 -1993,321 l -263,1 38,29 c 63,49 170,163 199,211 14,25 34,72 44,103 l 18,57 133,8 c 159,10 618,2 809,-13 900,-72 1737,-306 2580,-723 113,-56 208,-103 213,-105 4,-2 7,64 7,146 v 149 l -132,63 c -553,264 -1221,484 -1746,576 -56,9 -102,20 -102,23 0,3 21,17 48,31 26,14 90,68 143,120 105,105 149,176 169,274 l 12,58 61,-6 c 327,-37 995,-212 1416,-372 64,-24 119,-44 124,-44 4,0 6,66 5,146 l -3,146 -80,30 c -176,65 -559,175 -806,232 l -27,6 41,77 c 79,152 121,278 163,490 3,18 9,22 32,18 145,-26 415,-82 530,-110 79,-19 145,-35 148,-35 2,0 3,66 2,147 l -3,147 -80,17 c -122,27 -387,76 -511,95 l -110,16 -13,61 c -7,34 -19,74 -27,90 -14,26 -13,37 7,120 17,70 22,124 23,226 l 1,133 120,-6 c 115,-7 447,-38 548,-52 l 47,-7 v 147 c 0,80 -1,146 -2,146 -2,0 -70,7 -153,15 -82,8 -259,18 -393,22 l -243,6 -46,91 c -86,171 -153,255 -418,526 -323,331 -354,381 -355,577 0,122 -9,133 -77,100 z m 278,-903 c 117,-72 194,-130 277,-209 68,-63 159,-172 151,-179 -2,-2 -93,-9 -202,-16 -188,-11 -199,-11 -213,7 -136,172 -214,340 -214,461 v 53 l 58,-32 c 31,-18 96,-56 143,-85 z m 547,-667 c 14,-16 31,-196 25,-254 l -5,-42 -48,57 c -26,31 -89,97 -139,147 -75,73 -88,91 -74,97 34,13 230,9 241,-5 z m -541,-138 c 205,-132 300,-204 371,-285 53,-59 118,-161 109,-171 -4,-3 -75,-1 -159,5 -84,7 -237,15 -340,18 l -188,7 v 273 c 0,172 4,274 10,274 5,0 94,-54 197,-121 z m -327,-164 v -263 l -72,-6 c -40,-3 -158,-10 -263,-16 -449,-27 -978,-111 -1472,-235 -99,-25 -185,-45 -192,-45 -8,0 -11,50 -9,188 l 3,187 170,57 c 409,137 914,263 1355,339 161,27 463,67 473,62 4,-2 7,-123 7,-268 z M 8940,5366 v -185 l -117,-36 C 8258,4971 7709,4757 7118,4479 l -192,-90 -23,28 c -62,72 -113,147 -106,154 11,10 231,127 473,252 342,176 788,382 1135,525 170,69 515,201 528,202 4,0 7,-83 7,-184 z m 2130,-347 c 0,-235 -1,-251 -17,-244 -117,47 -127,49 -268,49 -126,0 -148,-3 -225,-28 -72,-24 -111,-29 -250,-37 -599,-31 -761,-47 -1235,-122 -6,-1 -11,69 -13,190 l -2,192 40,11 c 317,85 886,181 1275,215 239,20 258,21 493,23 l 202,2 z m 380,241 c 152,-11 411,-36 469,-47 l 34,-6 -6,-91 c -8,-109 -33,-219 -88,-381 l -40,-121 -174,32 c -96,17 -238,40 -315,50 l -140,18 v 278 278 h 58 c 31,0 122,-5 202,-10 z m -8472,-90 c 43,-26 70,-88 90,-204 44,-262 -83,-553 -362,-825 -53,-52 -55,-53 -60,-30 -16,77 -28,224 -27,364 0,233 24,376 87,513 48,106 100,162 173,188 49,18 61,17 99,-6 z m 5962,-369 v -189 l -77,-17 c -513,-110 -995,-252 -1467,-430 -199,-75 -199,-75 -214,-53 -8,11 -46,56 -84,98 l -68,78 193,85 c 416,184 763,319 1134,442 175,58 554,173 576,174 4,1 7,-84 7,-188 z m 1190,-303 c -85,-128 -106,-261 -64,-413 5,-20 0,-20 -363,-20 -202,0 -430,-4 -505,-8 l -138,-8 v 194 c 0,194 0,195 23,200 45,12 336,46 512,62 226,19 260,21 423,23 l 134,2 z m -3512,-145 -3,-118 -624,-313 c -343,-172 -625,-312 -627,-309 -2,2 -6,41 -10,88 l -6,84 193,102 c 107,56 390,210 629,342 239,132 439,240 443,241 4,0 6,-53 5,-117 z m -1403,75 c 2,-13 14,-131 25,-263 11,-132 23,-252 26,-267 5,-23 0,-31 -28,-48 -51,-32 -618,-312 -755,-373 l -123,-55 -4,32 c -10,61 -69,736 -65,739 2,2 87,27 189,56 102,28 300,85 440,126 140,41 263,74 272,75 10,0 20,-10 23,-22 z m 3725,-133 v -125 l -40,20 c -129,66 -309,67 -468,4 -139,-56 -308,-181 -362,-268 -18,-31 -28,-35 -118,-56 -124,-28 -290,-71 -464,-121 -75,-21 -138,-39 -141,-39 -2,0 -7,22 -11,50 -4,27 -18,84 -32,126 -20,58 -23,78 -14,84 24,15 557,190 715,235 280,80 838,210 918,214 15,1 17,-11 17,-124 z M 6871,4165 c 63,-31 127,-76 158,-109 23,-24 23,-26 5,-32 -10,-4 -86,-36 -167,-70 -103,-43 -150,-59 -153,-50 -3,7 -3,61 -2,122 l 3,109 50,27 c 28,15 52,28 54,28 1,0 25,-11 52,-25 z m -253,-196 -3,-121 -350,-155 c -192,-85 -468,-205 -612,-268 l -262,-113 -5,52 c -4,28 -7,68 -9,89 l -2,37 205,98 c 113,53 390,188 615,299 226,110 414,202 418,202 4,1 6,-54 5,-120 z m 557,-110 c 25,-55 61,-176 54,-183 -6,-7 -498,-176 -509,-176 -7,0 -10,44 -8,122 l 3,123 205,82 c 113,45 211,83 218,83 7,0 24,-23 37,-51 z M 5284,3688 c 14,-123 37,-101 -236,-225 -275,-125 -654,-280 -663,-271 -4,3 -7,34 -8,68 l -2,62 175,76 c 96,42 294,136 440,208 146,73 270,133 276,133 6,1 14,-23 18,-51 z m 2695,-43 c 0,-81 27,-144 84,-202 22,-24 37,-43 32,-43 -61,0 -521,-83 -704,-126 -57,-13 -106,-23 -108,-21 -2,2 8,45 21,96 14,50 28,116 31,146 l 7,55 52,15 c 56,17 538,137 578,144 3,0 6,-28 7,-64 z m -1361,-66 -3,-121 -525,-197 c -695,-261 -703,-263 -696,-245 3,9 6,54 6,100 0,46 4,84 9,84 11,0 459,186 901,374 162,69 299,126 303,126 4,0 6,-54 5,-121 z m 602,-174 c -6,-33 -20,-88 -31,-123 -17,-51 -25,-63 -47,-68 -15,-4 -114,-31 -220,-60 -107,-30 -198,-54 -203,-54 -15,0 -11,236 4,248 6,5 122,46 257,89 l 245,80 3,-26 c 2,-14 -1,-52 -8,-86 z m -4630,98 c 0,-3 9,-80 21,-170 11,-91 19,-166 17,-167 -1,-1 -33,-15 -70,-30 -127,-53 -230,-139 -292,-245 -36,-63 -41,-65 -188,-76 -66,-5 -88,-4 -88,5 0,25 87,178 142,250 80,106 163,192 313,325 120,107 145,125 145,108 z m 2724,-140 c 5,-64 3,-83 -6,-85 -7,0 -44,-2 -83,-3 -83,-2 -137,-26 -205,-89 -49,-46 -136,-83 -459,-191 l -159,-53 -7,65 c -4,36 -3,69 2,73 4,4 78,33 163,65 160,60 500,202 650,272 47,22 88,37 91,34 4,-3 9,-43 13,-88 z m 1304,-175 -3,-121 -250,-77 c -137,-43 -398,-123 -580,-179 -611,-189 -962,-284 -1338,-360 -317,-65 -677,-122 -928,-147 l -67,-6 14,52 c 8,29 16,55 18,58 3,2 74,15 158,28 84,13 200,33 257,44 84,16 111,17 145,8 59,-16 124,-3 192,38 44,27 103,46 253,84 108,27 279,73 381,103 102,30 214,57 249,60 47,4 76,13 114,37 29,18 189,80 362,141 170,60 465,165 655,233 190,69 351,125 358,125 10,1 12,-27 10,-121 z m -2313,43 c 4,-33 4,-64 1,-70 -15,-23 -853,-281 -916,-281 -9,0 -31,18 -49,40 l -31,39 57,16 c 256,72 580,180 793,264 69,27 128,49 132,50 3,1 9,-26 13,-58 z M 700,3072 c 19,-10 49,-39 66,-64 31,-45 73,-172 61,-184 -3,-4 -42,-3 -87,1 -79,7 -81,8 -94,40 -31,73 -119,106 -185,68 -37,-22 -46,-14 -32,30 32,96 182,156 271,109 z m 3624,-53 c 11,-57 10,-58 -31,-43 -51,18 -89,17 -154,-2 -45,-13 -67,-29 -128,-91 -61,-63 -83,-78 -125,-89 -80,-21 -403,-94 -418,-94 -7,0 -18,15 -24,33 -6,17 -14,39 -18,47 -5,12 26,23 166,58 169,43 538,151 648,191 74,26 77,26 84,-10 z m 611,-151 c 5,-14 0,-20 -21,-29 -45,-17 -507,-149 -523,-149 -8,0 -11,6 -6,18 4,9 12,42 17,73 l 11,56 251,84 251,84 6,-60 c 4,-33 10,-68 14,-77 z m -2010,-44 c 33,-8 64,-19 68,-23 4,-4 -33,-15 -83,-23 -49,-8 -90,-11 -90,-8 0,4 -3,22 -6,39 -6,29 -5,31 23,31 16,0 56,-7 88,-16 z m -245,-33 c 0,-11 3,-26 6,-34 4,-11 -8,-16 -53,-21 -32,-4 -71,-9 -88,-12 l -30,-5 29,23 c 37,30 107,68 123,68 7,0 13,-9 13,-19 z M 793,2764 c 22,-4 37,-11 37,-20 0,-17 -3,-17 -107,-2 -61,8 -83,15 -83,26 0,14 34,14 153,-4 z m 1410,-36 c -3,-18 -7,-35 -9,-36 -1,-2 -57,-6 -123,-9 l -120,-6 8,29 c 7,29 8,29 122,40 63,6 117,12 121,13 4,0 5,-14 1,-31 z m -775,-4 192,-7 v -25 -24 l -132,6 c -330,17 -478,30 -478,45 0,20 22,23 120,17 58,-3 192,-9 298,-12 z m 1712,-34 c 18,-23 31,-42 29,-44 -7,-6 -320,-48 -325,-44 -2,3 -5,22 -7,44 l -2,38 125,22 c 69,12 130,22 137,23 6,0 26,-17 43,-39 z m -2416,-2 c 56,-7 90,-17 93,-25 3,-8 3,-16 1,-18 -4,-5 -130,15 -238,37 -44,9 -51,12 -35,19 11,5 36,6 55,4 19,-3 75,-10 124,-17 z m 3199,-45 c 2,-32 3,-60 2,-61 -4,-5 -361,-70 -405,-74 l -35,-3 -3,52 c -3,48 -1,53 20,58 13,2 100,21 193,41 94,20 172,38 174,40 2,2 14,4 26,4 20,0 23,-6 28,-57 z m -1220,-15 c 3,-18 2,-36 -2,-40 -5,-5 -228,-28 -277,-28 -12,0 -11,7 5,39 l 20,39 83,10 c 46,5 102,10 124,11 40,1 42,-1 47,-31 z m -1533,8 c 85,-8 221,-18 302,-22 146,-7 146,-7 151,-32 l 5,-25 -127,7 c -121,6 -502,45 -510,52 -6,5 8,34 16,34 4,0 78,-7 163,-14 z m 1020,-51 v -35 h -125 c -112,0 -125,2 -125,18 0,35 15,41 110,45 52,1 105,4 118,5 19,2 22,-3 22,-33 z m 1040,-66 c 6,-23 9,-43 6,-46 -5,-5 -154,-24 -302,-37 l -71,-7 -6,43 c -3,23 -5,43 -4,45 1,1 79,11 172,23 94,12 172,24 174,26 9,9 21,-10 31,-47 z m -2105,21 c 124,-16 466,-50 503,-50 5,0 12,-12 15,-26 l 5,-27 -82,7 c -149,12 -560,67 -603,81 -12,4 -7,35 6,35 3,0 74,-9 156,-20 z m 1599,-81 6,-36 -106,-6 c -59,-4 -133,-7 -166,-7 h -58 v 40 40 l 78,1 c 42,1 111,4 152,8 41,3 78,4 81,1 4,-3 9,-21 13,-41 z m -505,-10 c 6,-18 11,-34 11,-35 0,-2 -59,-4 -130,-4 h -130 l -10,26 c -6,14 -10,30 -10,35 0,5 56,9 129,9 h 129 z m -1124,-4 c 136,-22 527,-75 559,-75 12,0 41,-49 33,-56 -12,-12 -768,113 -784,130 -9,9 8,26 26,26 9,0 84,-11 166,-25 z m 2149,-107 c -4,-24 -10,-47 -14,-51 -7,-8 -215,-25 -311,-27 -36,0 -37,1 -41,43 -3,23 -4,43 -2,45 2,4 272,29 332,31 l 42,1 z m -1093,2 h 116 l 27,-40 27,-41 -93,6 c -195,12 -218,16 -228,35 -18,33 -13,53 13,46 12,-3 74,-6 138,-6 z m 589,-9 c 0,-5 3,-23 6,-40 l 7,-31 h -145 -144 l -17,35 c -9,20 -17,38 -17,40 0,3 70,5 155,5 85,0 155,-4 155,-9 z m -490,-136 135,-7 92,-45 c 91,-46 171,-62 180,-37 2,6 -22,24 -54,40 l -58,29 104,3 c 57,1 105,1 107,-1 9,-8 37,-257 31,-264 -17,-16 -225,-15 -303,2 -160,34 -320,134 -403,250 l -34,48 34,-6 c 19,-3 95,-9 169,-12 z m 940,-13 c 0,-14 -54,-84 -91,-119 -37,-34 -147,-103 -165,-103 -7,0 -16,37 -23,88 -17,138 -20,130 47,135 120,7 232,7 232,-1 z"
       id="path846"
       style="fill:#008fcc;fill-opacity:1" />
    <path
       d="m 1003,3174 c -22,-22 -24,-31 -19,-67 9,-56 40,-87 86,-87 62,0 106,62 81,116 -13,29 -67,64 -99,64 -13,0 -34,-12 -49,-26 z"
       id="path848"
       style="fill:#008fcc;fill-opacity:1" />
  </g>
  <g
     id="g2655"
     style="fill:url(#linearGradient2681);fill-opacity:1">
    <path
       d="m -1763.5473,-399.61798 c -0.6492,2.43444 -1.3525,4.97708 -1.5689,5.65331 l -0.3516,1.24426 -1.7041,0.18936 c -0.9197,0.10819 -2.4885,0.37867 -3.4894,0.59507 -1.0008,0.24345 -1.9475,0.35164 -2.0828,0.27049 -0.1352,-0.10819 -1.6229,-2.13689 -3.2729,-4.57132 -1.6771,-2.40739 -3.1377,-4.49017 -3.2459,-4.59839 -0.1353,-0.16229 -7.114,2.78609 -7.4927,3.16477 -0.054,0.0271 0.5951,2.59673 1.4336,5.68035 0.8115,3.11068 1.4607,5.6533 1.4066,5.68034 -0.7033,0.51395 -3.6246,2.84018 -4.5172,3.62461 l -1.2172,1.05493 -5.2205,-2.51559 -5.2206,-2.51558 -2.2992,3.24591 c -1.2713,1.78526 -2.2991,3.32706 -2.2991,3.43525 0,0.10822 1.8393,2.00166 4.0574,4.24675 l 4.0574,4.05739 -0.8927,2.16393 c -0.5139,1.19018 -1.0549,2.73199 -1.2443,3.43527 -0.4057,1.48771 -0.054,1.37952 -6.2483,1.83934 -2.0017,0.1623 -4.1656,0.35166 -4.7607,0.4328 l -1.109,0.13524 -0.3517,3.89509 c -0.1893,2.16395 -0.2975,4.00331 -0.1893,4.08446 0.081,0.0811 2.5156,0.81147 5.4098,1.59589 2.8943,0.78443 5.4099,1.48772 5.5722,1.59591 0.1623,0.10819 0.2975,0.64919 0.2975,1.19018 0,0.54097 0.2435,2.08278 0.514,3.43525 0.2705,1.32541 0.4598,2.51558 0.4057,2.62377 -0.081,0.10821 -2.191,1.62296 -4.7066,3.35412 -2.5426,1.73115 -4.5983,3.27296 -4.5983,3.40821 0,0.29753 2.9483,6.76231 3.1918,7.0328 0.1623,0.1623 8.277,-1.78525 10.7656,-2.59673 0.4598,-0.13523 0.8115,0.1623 2.0828,1.78525 0.8115,1.08199 1.8664,2.32625 2.3262,2.75903 0.4599,0.45984 0.8386,0.89262 0.8386,1.00083 0,0.10819 -1.1091,2.54263 -2.4345,5.3828 -1.3525,2.86722 -2.4344,5.24757 -2.3803,5.27461 0.6762,0.59508 6.3566,4.46313 6.5729,4.46313 0.1623,0 2.0828,-1.81229 4.3009,-4.03035 l 4.0303,-4.03033 1.3795,0.62212 c 0.7574,0.3246 2.2451,0.86559 3.273,1.21722 1.0549,0.32459 1.9746,0.70329 2.1098,0.78444 0.1082,0.10819 0.3787,2.67788 0.6222,5.73445 0.2434,3.02951 0.5139,5.5992 0.6221,5.70739 0.081,0.10819 1.9205,0.35163 4.0574,0.54099 3.1648,0.29753 3.8951,0.32459 4.0033,0.027 0.081,-0.18933 0.7844,-2.70492 1.5688,-5.57215 l 1.4066,-5.19346 0.9197,-0.18934 c 0.5139,-0.10819 2.1639,-0.40574 3.7057,-0.67623 l 2.7591,-0.51395 3.327,4.78773 c 3.1918,4.59838 3.3271,4.76067 3.9763,4.46313 0.3787,-0.1623 2.0287,-0.91967 3.7057,-1.70411 l 3.0295,-1.40655 -1.3524,-5.08527 c -0.7304,-2.78607 -1.4066,-5.3287 -1.4877,-5.65329 -0.1082,-0.45984 0.1352,-0.78443 1.2983,-1.59591 0.7845,-0.56804 2.0558,-1.65 2.8402,-2.38033 l 1.4066,-1.32543 5.3016,2.48854 c 2.8943,1.37951 5.3287,2.46148 5.3828,2.40739 0.3787,-0.4328 4.2738,-6.032 4.355,-6.27544 0.054,-0.18934 -1.7041,-2.21804 -3.8951,-4.51722 -3.5705,-3.70575 -4.0033,-4.24675 -3.7328,-4.73363 0.1623,-0.29753 0.7303,-1.8123 1.2983,-3.38115 l 1.0009,-2.84017 3.327,-0.29755 c 1.8394,-0.18934 4.4632,-0.40574 5.8156,-0.51393 l 2.4615,-0.18936 0.3246,-3.27296 c 0.1623,-1.81229 0.2975,-3.67869 0.2975,-4.11149 v -0.81148 l -5.5451,-1.4877 c -4.7877,-1.27133 -5.5721,-1.54181 -5.6533,-2.0287 -0.054,-0.29755 -0.2975,-1.75821 -0.5139,-3.24591 -0.2435,-1.4877 -0.4869,-2.89428 -0.5951,-3.11066 -0.1082,-0.29755 1.1902,-1.32543 4.7066,-3.75986 l 4.8418,-3.32706 -1.677,-3.62459 c -1.0279,-2.2451 -1.8124,-3.59757 -2.0558,-3.62461 -0.2164,0 -2.6779,0.62214 -5.464,1.35247 -5.1664,1.37951 -5.8967,1.51474 -5.8967,1.13607 0,-0.13526 -0.9738,-1.40658 -2.1639,-2.86724 l -2.191,-2.62377 2.3262,-4.92298 c 1.2984,-2.70492 2.4074,-5.0582 2.4885,-5.2205 0.054,-0.18934 -1.3795,-1.37951 -3.2188,-2.65083 l -3.3,-2.32623 -4.1115,4.08444 -4.1115,4.11149 -2.4074,-0.97377 c -1.2984,-0.51395 -2.8943,-1.08199 -3.4893,-1.24428 -1.2984,-0.35164 -1.1632,0.18936 -1.7583,-7.65494 l -0.3245,-4.24673 -1.1091,-0.16229 c -1.0819,-0.13526 -6.5188,-0.67625 -6.8975,-0.67625 -0.081,0 -0.7033,1.97461 -1.3525,4.38198 z m 5.1123,16.04023 c 10.5492,1.59591 19.4484,9.03445 22.8566,19.09678 1.0009,2.94838 1.4878,5.92379 1.4878,9.30495 0,6.65413 -2.1099,12.68611 -6.2214,17.79842 -3.9762,4.95002 -9.1156,8.30414 -15.3099,9.95414 -3.0836,0.83852 -9.4131,1.02788 -12.5508,0.3787 -10.9009,-2.21806 -19.3943,-10.0894 -22.3157,-20.71976 -0.9737,-3.46229 -1.2172,-9.03445 -0.568,-12.49677 1.1631,-6.11312 3.9762,-11.30658 8.4935,-15.66152 6.4918,-6.24839 15.2287,-9.03446 24.1279,-7.65494 z"
       id="path2420"
       style="fill:url(#linearGradient2681);stroke:none;stroke-width:0.0270492;fill-opacity:1" />
    <path
       d="m -1924.3552,-375.13838 c -0.081,0.27049 -1.0549,3.57051 -2.191,7.35741 -1.109,3.75984 -2.0287,6.8705 -2.0287,6.92461 0,0.027 -0.8926,0.13525 -1.9476,0.24344 -1.0819,0.10819 -3.2999,0.45985 -4.95,0.81148 -1.6229,0.35163 -2.9754,0.62214 -3.0024,0.59508 -0.027,0 -1.8935,-2.70492 -4.1656,-5.97788 -2.2451,-3.27298 -4.1927,-6.05904 -4.3009,-6.16723 -0.1622,-0.1623 -9.5754,3.86803 -10.0082,4.27377 -0.054,0.0811 0.7304,3.40821 1.7312,7.4656 1.5959,6.32953 1.7852,7.38445 1.4336,7.57381 -0.7303,0.40574 -3.6517,2.65081 -5.1394,3.94918 -0.7844,0.70329 -1.6229,1.43362 -1.8664,1.62295 -0.3787,0.29755 -1.4065,-0.0811 -7.2492,-2.75902 -3.7328,-1.70411 -6.8976,-3.11066 -7.0328,-3.11066 -0.1893,0 -5.5992,7.0869 -6.3295,8.30412 -0.1353,0.24344 1.4606,1.97461 5.1934,5.62626 l 5.3828,5.30165 -0.8926,1.94755 c -0.4869,1.08196 -1.2983,3.11066 -1.7852,4.51723 -0.4869,1.40656 -0.8927,2.59673 -0.9197,2.65082 -0.054,0.0541 -3.5164,0.3787 -7.7361,0.75739 -4.2197,0.37868 -7.7632,0.78442 -7.8443,0.86557 -0.1623,0.18935 -1.4066,10.35987 -1.2713,10.46806 0.054,0.0271 3.4352,0.89263 7.5197,1.94755 l 7.4385,1.89346 0.1894,2.00164 c 0.1893,1.8664 0.8385,5.5992 1.1901,6.89756 0.1353,0.51393 -0.6491,1.13607 -6.1672,4.84183 -3.4623,2.35329 -6.4107,4.35492 -6.5189,4.46313 -0.1893,0.16229 3.6246,8.98034 4.1115,9.52134 0.081,0.10819 3.5705,-0.70329 7.7361,-1.8123 4.1386,-1.10903 7.5468,-2.00165 7.5738,-1.94755 0.4058,0.64919 3.7328,4.78773 4.7607,5.92379 l 1.3795,1.54181 -3.4623,6.78936 -3.4894,6.81641 0.8386,0.64919 c 0.4598,0.35165 2.4344,1.75821 4.3819,3.08361 l 3.5435,2.43444 5.5992,-5.3287 c 3.0566,-2.94838 5.7885,-5.32871 6.032,-5.32871 0.2434,0.027 1.3525,0.43278 2.4615,0.91967 1.109,0.45984 3.0025,1.13607 4.1926,1.48772 l 2.164,0.62212 0.1622,1.35247 c 0.1082,0.73033 0.3246,4.03035 0.514,7.30331 0.1893,3.30002 0.4328,6.11313 0.541,6.27542 0.1893,0.32459 10.441,1.29837 10.7115,1.02788 0.081,-0.0811 0.7303,-2.21803 1.4877,-4.70657 2.8402,-9.65659 2.9213,-9.81889 3.5705,-9.95414 0.3246,-0.0541 1.6771,-0.27049 2.9754,-0.43278 1.3254,-0.18934 3.2459,-0.541 4.2738,-0.81148 l 1.8935,-0.45985 1.8393,2.59673 c 1.0008,1.43362 2.9484,4.21969 4.3279,6.1943 2.0557,2.94837 2.5967,3.57051 3.0295,3.43525 0.6762,-0.2164 9.1968,-4.13854 9.3861,-4.30083 0.081,-0.0811 -0.6762,-3.35411 -1.6771,-7.2492 -0.9737,-3.92216 -1.7852,-7.19511 -1.7852,-7.27626 0,-0.10819 0.9467,-0.89263 2.1098,-1.73115 1.1361,-0.86558 2.8673,-2.27214 3.841,-3.13772 l 1.7582,-1.54181 2.705,1.21722 c 1.4877,0.67622 4.6254,2.13688 6.9787,3.21887 l 4.2738,1.97459 3.2459,-4.35494 3.2459,-4.38198 -5.3828,-5.40984 -5.4099,-5.43691 1.0549,-2.16395 c 0.5681,-1.19017 1.3525,-3.16476 1.7583,-4.40902 0.4057,-1.21722 0.8114,-2.2992 0.9196,-2.35329 0.1082,-0.0541 3.6246,-0.4328 7.8443,-0.81148 4.2197,-0.37869 7.7091,-0.73033 7.7361,-0.75739 0.054,-0.0811 1.0549,-9.46723 1.0549,-10.03527 0,-0.45984 -0.9738,-0.75737 -7.4385,-2.43443 l -7.4386,-1.92051 -0.3246,-2.78606 c -0.1623,-1.54181 -0.5139,-3.65166 -0.7303,-4.65247 -0.2434,-1.02788 -0.4328,-1.92051 -0.4328,-2.00166 0,-0.0541 2.9213,-2.0828 6.4918,-4.49017 3.5706,-2.38035 6.4919,-4.38198 6.4919,-4.43609 0,-0.027 -0.9738,-2.19099 -2.164,-4.78772 -1.7041,-3.75984 -2.2451,-4.67953 -2.6237,-4.62542 -0.2706,0.0541 -3.7058,0.94673 -7.6279,1.97459 -3.9222,1.05492 -7.141,1.8664 -7.1952,1.81231 -0.054,-0.0541 -0.6221,-0.83854 -1.2983,-1.75821 -0.6762,-0.89262 -2.0558,-2.51558 -3.0566,-3.5705 l -1.8123,-1.94755 3.4353,-6.70823 c 1.8664,-3.70573 3.4082,-6.84346 3.4082,-7.00575 0,-0.27049 -8.196,-6.00494 -8.6017,-6.00494 -0.2164,0 -3.8139,3.3541 -9.9541,9.27789 l -1.4066,1.32543 -2.8672,-1.10902 c -1.5689,-0.62214 -3.6517,-1.32541 -4.5984,-1.56886 l -1.7311,-0.45984 -0.1353,-1.51477 c -0.1082,-0.81147 -0.3246,-4.13853 -0.4869,-7.35738 -0.1893,-3.24592 -0.4057,-6.00494 -0.5139,-6.1402 -0.081,-0.16229 -2.4074,-0.45984 -5.1394,-0.67622 -6.086,-0.51395 -5.6262,-0.54099 -5.7885,0.027 z m 7.709,26.53534 c 14.796,3.48935 25.3722,13.98447 28.4018,28.2124 0.7844,3.65165 0.8655,9.98118 0.1623,13.65987 -2.9484,15.82383 -15.3911,28.26649 -31.4313,31.45829 -12.3345,2.43444 -25.2911,-1.2713 -34.0009,-9.76478 -3.0836,-3.00247 -5.3287,-6.14019 -7.2763,-10.08937 -1.8123,-3.70576 -2.732,-6.70823 -3.327,-10.76562 -1.7042,-11.46888 2.4885,-23.47876 11.2254,-32.10747 5.5721,-5.49101 13.2812,-9.46725 21.2066,-10.95496 3.1918,-0.56803 11.9017,-0.37869 15.0394,0.35164 z"
       id="path2422"
       style="fill:url(#linearGradient2681);stroke:none;stroke-width:0.0270492;fill-opacity:1" />
    <path
       d="m -1823.0557,-333.99643 c -0.8115,3.00246 -1.623,5.46394 -1.8664,5.6533 -0.2434,0.18934 -0.8656,0.35163 -1.3795,0.35163 -0.541,0 -2.0287,0.2164 -3.3541,0.48689 l -2.3533,0.48689 -3.273,-4.81477 c -1.8123,-2.67787 -3.4352,-4.78772 -3.5975,-4.73363 -0.1623,0.0812 -1.8394,0.83854 -3.7599,1.67706 -3.0295,1.37951 -3.4352,1.62296 -3.2729,2.10984 0.081,0.29755 0.7573,2.84018 1.4606,5.65331 l 1.2984,5.11231 -1.5148,1.10901 c -0.8655,0.62214 -2.1098,1.67706 -2.8131,2.32624 l -1.2984,1.21722 -1.677,-0.75737 c -0.9467,-0.40574 -3.2459,-1.51477 -5.1394,-2.4615 -1.8934,-0.94671 -3.5705,-1.73115 -3.7057,-1.73115 -0.1353,0 -1.2984,1.4877 -2.5967,3.27296 l -2.3533,3.27297 4.1115,4.13854 4.1114,4.11148 -0.7573,1.73116 c -0.3787,0.94671 -1.0008,2.51557 -1.3254,3.48934 -0.541,1.59591 -0.6763,1.75821 -1.3796,1.83936 -0.4328,0.027 -3.0024,0.2164 -5.7074,0.40574 -2.7319,0.2164 -5.0041,0.43278 -5.0582,0.48688 -0.1082,0.10819 -0.9737,7.89838 -0.8656,8.00659 0.027,0.0271 2.5427,0.75738 5.6263,1.5959 l 5.5721,1.54181 0.1894,1.78525 c 0.081,0.97377 0.3516,2.54264 0.568,3.48935 0.2164,0.94674 0.3787,1.81232 0.3787,1.92051 0,0.10819 -2.1369,1.65 -4.7336,3.40821 -2.5967,1.75821 -4.7336,3.32706 -4.7336,3.43525 0,0.2164 2.9483,6.95167 3.1647,7.22216 0.027,0.0541 2.5156,-0.51393 5.491,-1.27131 2.9484,-0.78443 5.491,-1.40657 5.6263,-1.40657 0.1352,0 0.7844,0.70329 1.4336,1.54181 0.6492,0.86558 1.7041,2.1369 2.3262,2.81313 l 1.1632,1.24426 -2.5427,5.30167 -2.5426,5.27461 3.1377,2.24507 c 1.7041,1.24428 3.2459,2.32625 3.3812,2.38035 0.1352,0.0541 2.0828,-1.73117 4.3549,-3.97624 l 4.0844,-4.08446 1.2173,0.541 c 0.6762,0.32459 2.191,0.91967 3.3811,1.35247 1.3254,0.45982 2.2181,0.94671 2.3533,1.24426 0.081,0.27048 0.3246,2.89428 0.5139,5.8156 0.1894,2.94836 0.4058,5.35575 0.4869,5.35575 0.081,0 1.7582,0.18934 3.6787,0.40574 1.9476,0.21638 3.7058,0.40574 3.9492,0.40574 0.2976,0 0.7574,-1.27132 1.8664,-5.22052 0.7844,-2.84018 1.5418,-5.40984 1.6771,-5.68035 0.1623,-0.29753 0.568,-0.45982 1.2442,-0.45982 0.541,0 2.164,-0.24345 3.5706,-0.51395 1.4065,-0.29753 2.5696,-0.48689 2.5967,-0.45983 0,0 1.4336,2.13689 3.1918,4.70658 1.7582,2.59673 3.1377,4.73361 3.0836,4.78772 -0.054,0.0541 -1.8123,-0.67625 -3.9221,-1.65002 -2.1369,-0.94671 -3.8951,-1.73115 -3.9492,-1.73115 -0.1894,0 -4.5173,6.43772 -4.5173,6.68117 0,0.10821 1.8394,1.97461 4.0845,4.11149 2.8402,2.73198 4.0303,4.03035 3.9221,4.32788 -0.081,0.24344 -0.6221,1.83935 -1.2172,3.54346 -0.8115,2.29918 -1.2172,3.13772 -1.5688,3.1918 -0.2706,0.0271 -2.8402,0.29755 -5.7075,0.56804 -2.8942,0.29755 -5.2746,0.56803 -5.3286,0.62214 -0.1623,0.16229 -0.7304,7.81723 -0.5951,7.95249 0.081,0.0811 2.5967,0.78443 5.6262,1.5418 l 5.464,1.43362 0.6221,3.21885 c 0.3246,1.78525 0.6762,3.43527 0.7574,3.65165 0.1082,0.29755 -1.1631,1.35247 -4.5713,3.75987 -2.5968,1.83933 -4.7337,3.46229 -4.7337,3.5705 0,0.10819 0.7033,1.67704 1.5959,3.43525 0.8656,1.78525 1.623,3.38117 1.6771,3.54346 0.081,0.18934 2.1639,-0.29755 5.7885,-1.29836 3.1107,-0.89263 5.6804,-1.59592 5.6804,-1.56887 0.054,0.24344 2.4074,3.05657 3.4623,4.13853 l 1.3254,1.40658 -2.4344,5.35576 -2.4345,5.35575 3.273,2.24508 c 1.8123,1.24428 3.3541,2.2451 3.4623,2.2451 0.1082,0 1.9746,-1.83936 4.1656,-4.1115 3.8139,-3.8951 4.0033,-4.08443 4.7066,-3.81395 0.3787,0.1623 1.9205,0.70329 3.4082,1.19018 1.4877,0.48688 2.7319,0.91966 2.7861,0.94673 0.054,0.027 0.3516,2.65081 0.6762,5.84264 l 0.5951,5.7615 1.7582,0.16229 c 0.9737,0.10819 2.786,0.24344 4.0574,0.35164 l 2.2991,0.18933 0.7845,-3.05655 c 0.4057,-1.67706 1.0819,-4.21969 1.4336,-5.68035 l 0.7033,-2.59673 2.1098,-0.32459 c 1.1631,-0.1623 2.759,-0.45984 3.5435,-0.67625 0.7844,-0.18933 1.5147,-0.29752 1.6229,-0.24344 0.081,0.0541 1.6771,2.19099 3.4894,4.73364 1.8123,2.51558 3.3811,4.54428 3.4893,4.51721 2.2451,-0.89262 7.0329,-3.38114 7.0329,-3.62459 0,-0.2164 -0.6763,-2.75902 -1.5148,-5.68034 -0.8115,-2.92133 -1.4607,-5.32872 -1.4066,-5.38282 0.054,-0.0271 0.8115,-0.64919 1.7041,-1.35245 0.8927,-0.70329 2.1369,-1.78525 2.7591,-2.35329 l 1.109,-1.08198 5.1123,2.32624 c 2.7861,1.27132 5.2205,2.32624 5.3557,2.32624 0.1623,0 1.3255,-1.48772 2.5697,-3.30001 l 2.2722,-3.30002 -4.2197,-4.08443 -4.2197,-4.0574 0.6492,-1.4877 c 0.3516,-0.81148 0.8926,-2.35329 1.2172,-3.38117 0.2975,-1.05492 0.6221,-1.94754 0.6762,-2.00165 0.054,-0.0541 2.6779,-0.35163 5.8427,-0.67622 l 5.7615,-0.56804 0.2975,-3.92214 c 0.1623,-2.16394 0.2434,-4.0033 0.1353,-4.11149 -0.081,-0.0812 -2.5968,-0.78444 -5.5452,-1.54181 -2.9754,-0.75737 -5.4369,-1.43362 -5.491,-1.4877 -0.054,-0.0541 -0.2164,-0.86559 -0.3516,-1.81232 -0.1623,-0.94671 -0.4598,-2.56967 -0.7033,-3.5705 -0.2434,-1.00082 -0.4057,-1.8664 -0.3516,-1.92049 0.054,-0.0271 2.191,-1.56887 4.7607,-3.38116 l 4.6524,-3.30002 -0.6221,-1.40656 c -1.7853,-3.94919 -2.759,-5.84264 -3.0295,-5.86968 -0.1623,0 -2.705,0.67623 -5.6804,1.51475 l -5.3828,1.48772 -0.4869,-0.62214 c -0.2704,-0.35163 -1.3254,-1.56885 -2.2991,-2.73198 -1.0009,-1.16311 -1.8394,-2.21804 -1.8935,-2.32623 -0.027,-0.10821 0.9738,-2.48854 2.2451,-5.2746 1.2713,-2.78609 2.2992,-5.16642 2.2992,-5.24757 -0.027,-0.10819 -1.5148,-1.19017 -3.3271,-2.43443 l -3.3,-2.2451 -4.1115,4.19264 -4.0844,4.19265 -1.8935,-0.78444 c -1.0549,-0.43278 -2.6238,-0.97377 -3.5164,-1.21722 l -1.5959,-0.45984 -0.541,-5.65328 c -0.2975,-3.11068 -0.6221,-5.73446 -0.7303,-5.84265 -0.2434,-0.2705 -7.682,-0.75739 -7.8984,-0.54099 -0.1082,0.0811 -0.8115,2.65084 -1.5959,5.6533 l -1.4066,5.49099 -1.5959,0.18936 c -0.8655,0.0812 -2.4344,0.35164 -3.4352,0.59508 -1.0279,0.24344 -1.9476,0.43278 -2.0828,0.43278 -0.2164,0 -6.7623,-8.98034 -6.7623,-9.27789 0,-0.0811 1.8393,0.75737 4.0844,1.8664 2.2451,1.10902 4.1115,2.00165 4.1656,2.00165 0.027,0 1.1361,-1.46066 2.4344,-3.24591 l 2.3533,-3.24592 -4.0303,-4.24675 -4.0304,-4.21968 1.0009,-2.46148 c 0.5409,-1.35247 1.0819,-2.86721 1.1901,-3.3541 0.1082,-0.51395 0.3246,-0.94673 0.4869,-1.00084 0.1894,-0.0811 2.8131,-0.29753 5.8427,-0.54097 3.0565,-0.2164 5.5721,-0.45984 5.6262,-0.48689 0.1623,-0.16229 0.9197,-7.84429 0.7844,-7.97955 -0.081,-0.0811 -2.6238,-0.83852 -5.6262,-1.67704 l -5.491,-1.54181 -0.081,-0.91969 c -0.081,-0.97377 -0.7574,-4.86886 -1.0278,-5.81558 -0.1353,-0.45984 0.568,-1.02787 4.7336,-3.84101 l 4.8418,-3.29999 -1.623,-3.65166 c -0.9196,-2.00165 -1.7852,-3.65165 -1.9745,-3.65165 -0.1894,0 -2.6779,0.59508 -5.5722,1.35247 -2.8943,0.73033 -5.3287,1.35245 -5.4099,1.35245 -0.081,0 -0.5409,-0.54097 -1.0278,-1.21721 -0.4869,-0.67623 -1.5418,-1.97459 -2.3263,-2.86722 l -1.4336,-1.65 2.4074,-4.97708 c 1.3254,-2.73196 2.4344,-5.11231 2.4615,-5.27461 0.081,-0.32459 -5.8967,-4.8418 -6.4107,-4.8418 -0.1352,0 -2.0287,1.75819 -4.1926,3.92213 -2.164,2.16395 -4.0845,3.92214 -4.2738,3.92214 -0.1893,0 -0.7844,-0.21638 -1.3525,-0.51393 -0.541,-0.27048 -2.0016,-0.83852 -3.1918,-1.24426 l -2.218,-0.73033 -0.1623,-1.67706 c -0.081,-0.89262 -0.2976,-3.48935 -0.4599,-5.70739 -0.1623,-2.24509 -0.3787,-4.13854 -0.4598,-4.21969 -0.1893,-0.16229 -6.3025,-0.78443 -7.4926,-0.78443 -0.4599,0 -0.7304,0.67622 -2.0017,5.35576 z m 5.6803,15.06645 c 11.9829,2.08278 21.396,11.63118 23.3706,23.69514 2.2181,13.74104 -5.8426,27.18452 -19.0968,31.70175 -14.3631,4.95002 -30.1599,-2.32624 -35.9484,-16.50005 -2.2181,-5.51805 -2.6238,-12.41561 -1.055,-18.20417 0.6763,-2.40737 2.4886,-6.38361 3.9492,-8.57461 3.1648,-4.81476 9.1156,-9.30495 14.7689,-11.17135 4.1115,-1.35245 9.6566,-1.73115 14.0115,-0.94671 z m 22.7214,55.451 0.8115,0.43278 -3.5975,1.75821 c -1.9746,0.97377 -3.6246,1.8123 -3.6517,1.83934 -0.027,0.0271 0.6492,2.54264 1.5148,5.62626 l 1.5688,5.5992 -2.0557,1.62296 c -1.1361,0.89262 -2.4074,1.97459 -2.8402,2.43443 l -0.7574,0.81148 -1.1901,-0.5951 c -0.6492,-0.29753 -1.1902,-0.62212 -1.1902,-0.70327 0,-0.10821 1.65,-0.89262 3.6516,-1.75821 2.0017,-0.86558 3.6517,-1.64999 3.6517,-1.7041 0,-0.0812 -0.5951,-2.48854 -1.3525,-5.3828 -0.7303,-2.89428 -1.3524,-5.40986 -1.3524,-5.62626 0,-0.18934 0.8115,-0.97377 1.8393,-1.73115 1.0009,-0.73033 2.164,-1.73114 2.5967,-2.19099 0.9197,-0.94673 1.2173,-1.00081 2.3533,-0.43278 z m 25.805,18.36645 c 4.7607,1.40655 8.6558,3.59755 12.0099,6.78937 6.6001,6.27542 9.846,14.79595 8.9533,23.58695 -1.0278,10.11644 -6.8434,18.52877 -15.8238,22.93779 -5.1664,2.51558 -10.3869,3.48936 -15.6345,2.92132 -16.3377,-1.8664 -27.8337,-16.39186 -25.5886,-32.43208 1.4877,-10.73856 8.9804,-19.88121 19.0968,-23.26236 3.7058,-1.24428 5.2746,-1.46066 10.0894,-1.35247 3.868,0.0811 4.7877,0.18934 6.8975,0.81148 z"
       id="path2424"
       style="fill:url(#linearGradient2681);stroke:none;stroke-width:0.0270492;fill-opacity:1" />
    <path
       d="m -2036.9072,-350.33421 -1.4336,5.68035 -2.0558,0.32459 c -1.136,0.1623 -2.759,0.48689 -3.6516,0.70329 -0.8656,0.2164 -1.5959,0.37869 -1.65,0.32459 -0.027,-0.0541 -1.4878,-2.0828 -3.2459,-4.54428 -1.7312,-2.46148 -3.273,-4.57132 -3.3812,-4.67953 -0.2976,-0.32459 -7.6009,3.21887 -7.4386,3.65165 0.2705,0.75739 3.0837,10.87381 3.0296,10.92791 -1.9205,1.48771 -3.5435,2.84018 -4.4361,3.70576 l -1.1361,1.08197 -5.1664,-2.35329 c -2.8402,-1.27132 -5.2476,-2.32625 -5.3828,-2.32625 -0.1353,0 -1.2443,1.48773 -2.4615,3.27298 l -2.2451,3.3 4.1386,4.08445 4.1115,4.08444 -0.4599,1.21721 c -0.2705,0.67623 -0.7844,2.19099 -1.1631,3.38117 -0.3787,1.19015 -0.7303,2.21803 -0.7844,2.27214 -0.054,0.0812 -2.6779,0.37867 -5.8427,0.67622 l -5.7344,0.56804 -0.1894,2.16395 c -0.1082,1.19015 -0.2434,3.02951 -0.3516,4.08443 l -0.1623,1.9205 5.6803,1.4336 5.6804,1.43362 0.1893,1.24426 c 0.1623,1.16313 0.6763,3.9492 1.0279,5.4369 0.1352,0.62214 -0.2434,0.94674 -4.5984,4.03035 -2.5967,1.83936 -4.7065,3.43525 -4.6524,3.54346 0.9467,2.32623 3.3811,7.0328 3.6516,7.0328 0.2164,0 2.759,-0.67622 5.7074,-1.51474 l 5.3287,-1.48773 0.6762,0.86559 c 0.3787,0.48688 1.4607,1.78525 2.4074,2.89427 l 1.7041,1.9746 -2.3262,5.08527 c -1.2713,2.81311 -2.3263,5.19346 -2.3263,5.32869 0,0.13525 1.4878,1.27132 3.3271,2.51558 l 3.3,2.2451 4.0845,-4.24673 c 3.9221,-4.08446 4.1115,-4.24675 4.7336,-3.8951 0.3516,0.18934 1.9205,0.78442 3.4894,1.32541 l 2.8401,0.97377 0.541,5.5451 c 0.2975,3.02953 0.6221,5.6533 0.7303,5.8156 0.1353,0.18934 1.623,0.3787 3.6517,0.48689 1.9205,0.10819 3.6516,0.24344 3.8951,0.32459 0.3516,0.0811 0.6762,-0.91967 1.8664,-5.57216 1.2713,-4.95002 1.5147,-5.70739 2.0016,-5.78854 0.3246,-0.0541 1.6771,-0.29755 3.0025,-0.54099 1.3525,-0.24344 2.732,-0.48689 3.1107,-0.59508 0.6491,-0.13525 0.9467,0.2164 3.9221,4.38199 1.7853,2.48854 3.3271,4.62542 3.4082,4.76067 0.081,0.13524 1.7853,-0.56803 3.7869,-1.5418 2.732,-1.35247 3.5976,-1.89347 3.5435,-2.2451 -0.054,-0.24344 -0.7574,-2.78607 -1.5689,-5.5992 l -1.4336,-5.13936 0.8656,-0.67624 c 0.4598,-0.37868 1.7311,-1.4336 2.8131,-2.38033 1.082,-0.91967 2.0287,-1.67706 2.1098,-1.67706 0.081,0 2.4615,1.05492 5.3017,2.32624 2.8402,1.29837 5.2476,2.21804 5.3558,2.10985 0.1082,-0.13526 1.1631,-1.62296 2.3262,-3.32706 l 2.1098,-3.05658 -4.1385,-4.13854 -4.1385,-4.13854 0.9737,-2.67788 c 0.541,-1.46066 1.082,-3.02951 1.2172,-3.46229 l 0.2435,-0.81148 5.7074,-0.56803 c 3.1648,-0.32459 5.7885,-0.62214 5.8426,-0.67625 0.1353,-0.16229 0.7304,-7.87134 0.6222,-7.97953 -0.054,-0.0811 -2.5968,-0.75737 -5.6804,-1.5418 l -5.5451,-1.40656 -0.3246,-2.0828 c -0.1623,-1.16311 -0.4869,-2.81313 -0.7033,-3.65165 -0.2163,-0.83852 -0.2975,-1.59592 -0.1893,-1.70411 0.1082,-0.10819 2.164,-1.56885 4.5443,-3.24591 2.3803,-1.67706 4.4361,-3.13772 4.5443,-3.24591 0.3516,-0.29755 -3.2189,-7.60085 -3.6517,-7.43856 -0.1893,0.0811 -2.5426,0.75739 -5.2205,1.48772 -2.6779,0.75738 -5.0582,1.4336 -5.3017,1.48771 -0.2975,0.10819 -0.6762,-0.18934 -1.109,-0.86559 -0.3787,-0.56803 -1.4606,-1.8664 -2.3803,-2.86721 l -1.6771,-1.83936 2.3263,-5.11231 c 1.2713,-2.84018 2.3262,-5.24755 2.3262,-5.3828 0,-0.13525 -1.4877,-1.24426 -3.273,-2.46148 l -3.2729,-2.21805 -4.1386,4.1115 -4.1385,4.13853 -1.1902,-0.48688 c -0.6221,-0.27049 -2.1909,-0.81148 -3.4623,-1.21722 l -2.2992,-0.73033 -0.5409,-5.78854 -0.541,-5.78856 -2.2992,-0.18933 c -1.2713,-0.0812 -3.1107,-0.24345 -4.0845,-0.35164 l -1.7852,-0.16229 z m 7.709,15.06645 c 6.2754,1.29837 12.4968,5.16642 16.5271,10.22463 2.0287,2.54262 4.4091,7.16805 5.2205,10.19758 2.7591,10.22463 -0.1082,20.82793 -7.6549,28.21238 -11.1443,10.90087 -29.2403,10.81972 -40.1952,-0.13523 -5.6804,-5.68035 -8.4394,-12.28039 -8.4935,-20.23287 -0.054,-7.30331 2.191,-13.36233 7.0058,-19.04268 4.1926,-4.92297 11.1713,-8.68282 17.8525,-9.6025 2.5156,-0.35164 7.0598,-0.1623 9.7377,0.37869 z"
       id="path2426"
       style="fill:url(#linearGradient2681);stroke:none;stroke-width:0.0270492;fill-opacity:1" />
  </g>
</svg>
